<?xml version="1.0" encoding="UTF-8" standalone="no"?>
<!DOCTYPE svg PUBLIC "-//W3C//DTD SVG 1.1//EN" "http://www.w3.org/Graphics/SVG/1.1/DTD/svg11.dtd">
<svg width="100%" height="100%" viewBox="0 0 447 185" version="1.1" xmlns="http://www.w3.org/2000/svg" xmlns:xlink="http://www.w3.org/1999/xlink" xml:space="preserve" xmlns:serif="http://www.serif.com/" style="fill-rule:evenodd;clip-rule:evenodd;stroke-linejoin:round;stroke-miterlimit:2;">
    <g transform="matrix(1,0,0,1,-742.451,-207.768)">
        <g transform="matrix(1,0,0,1,665.627,2.84217e-14)">
            <g transform="matrix(1.11861,0,0,1.11861,-92.5047,134.27)">
                <g transform="matrix(225,0,0,225,142.806,227.424)">
                    <path d="M0.58,-0.298L0.58,-0.406C0.58,-0.602 0.478,-0.719 0.309,-0.719C0.14,-0.719 0.038,-0.602 0.038,-0.406L0.038,-0.298C0.038,-0.103 0.14,0.014 0.309,0.014C0.478,0.014 0.58,-0.103 0.58,-0.298ZM0.309,-0.109C0.224,-0.109 0.179,-0.173 0.179,-0.3L0.179,-0.405C0.179,-0.532 0.224,-0.596 0.309,-0.596C0.394,-0.596 0.439,-0.532 0.439,-0.405L0.439,-0.3C0.439,-0.173 0.394,-0.109 0.309,-0.109Z" style="fill:white;fill-rule:nonzero;"/>
                </g>
                <g transform="matrix(225,0,0,225,281.893,227.424)">
                    <path d="M0.289,0.014C0.438,0.014 0.526,-0.072 0.526,-0.22L0.526,-0.705L0.134,-0.705L0.134,-0.585L0.387,-0.585L0.387,-0.222C0.387,-0.15 0.352,-0.111 0.287,-0.111C0.228,-0.111 0.188,-0.15 0.186,-0.209L0.052,-0.209C0.053,-0.073 0.146,0.014 0.289,0.014Z" style="fill:white;fill-rule:nonzero;"/>
                </g>
                <g transform="matrix(225,0,0,225,420.979,227.424)">
                    <path d="M0.046,-0.197C0.051,-0.065 0.151,0.014 0.311,0.014C0.476,0.014 0.575,-0.07 0.575,-0.209C0.575,-0.317 0.516,-0.378 0.379,-0.408L0.307,-0.425C0.231,-0.441 0.2,-0.469 0.2,-0.519C0.2,-0.571 0.243,-0.604 0.313,-0.604C0.382,-0.604 0.426,-0.568 0.432,-0.51L0.563,-0.51C0.558,-0.636 0.459,-0.719 0.312,-0.719C0.159,-0.719 0.062,-0.635 0.062,-0.504C0.062,-0.399 0.125,-0.332 0.252,-0.303L0.325,-0.286C0.407,-0.268 0.438,-0.243 0.438,-0.195C0.438,-0.138 0.39,-0.101 0.313,-0.101C0.233,-0.101 0.184,-0.136 0.177,-0.197L0.046,-0.197Z" style="fill:white;fill-rule:nonzero;"/>
                </g>
            </g>
        </g>
    </g>
</svg>
